<?xml version="1.0" encoding="UTF-8"?>
<svg xmlns="http://www.w3.org/2000/svg" xmlns:xlink="http://www.w3.org/1999/xlink" width="160px" height="12px" viewBox="0 0 161 12" version="1.1">
<g id="surface1">
<path style=" stroke:none;fill-rule:nonzero;fill:rgb(100%,100%,100%);fill-opacity:1;" d="M 0.515625 11.734375 C 0.328125 11.734375 0.195312 11.648438 0.117188 11.46875 C 0.0390625 11.292969 0 11.050781 0 10.753906 C 0 10.53125 0.015625 10.28125 0.0507812 10.003906 L 1.09375 0.269531 L 4.183594 0.269531 C 5.542969 0.269531 6.5625 0.496094 7.238281 0.953125 C 7.910156 1.40625 8.25 2.164062 8.25 3.21875 C 8.25 3.863281 8.101562 4.453125 7.8125 4.984375 C 7.515625 5.519531 7.140625 5.980469 6.683594 6.367188 C 6.222656 6.757812 5.730469 7.058594 5.210938 7.269531 C 4.691406 7.480469 4.203125 7.585938 3.75 7.585938 C 3.628906 7.585938 3.492188 7.546875 3.34375 7.46875 C 3.195312 7.390625 3.070312 7.292969 2.964844 7.167969 C 2.859375 7.046875 2.804688 6.925781 2.804688 6.800781 C 2.804688 6.679688 2.84375 6.59375 2.921875 6.546875 C 3 6.496094 3.082031 6.464844 3.171875 6.453125 C 3.667969 6.351562 4.136719 6.175781 4.574219 5.925781 C 5.011719 5.675781 5.363281 5.34375 5.636719 4.925781 C 5.90625 4.511719 6.042969 4.011719 6.042969 3.433594 C 6.042969 2.933594 5.921875 2.546875 5.6875 2.269531 C 5.449219 1.992188 5.101562 1.796875 4.648438 1.683594 C 4.195312 1.574219 3.628906 1.519531 2.953125 1.519531 L 1.859375 11.734375 Z M 9.925781 11.800781 C 9.726562 11.800781 9.574219 11.679688 9.472656 11.433594 C 9.363281 11.191406 9.3125 10.917969 9.3125 10.617188 C 9.3125 10.183594 9.359375 9.480469 9.460938 8.503906 L 10.289062 0.269531 L 12.847656 0.269531 C 13.632812 0.269531 14.253906 0.253906 14.714844 0.230469 C 15.175781 0.199219 15.523438 0.171875 15.761719 0.144531 C 16 0.117188 16.171875 0.101562 16.28125 0.101562 C 16.402344 0.101562 16.492188 0.121094 16.542969 0.160156 C 16.589844 0.199219 16.613281 0.300781 16.613281 0.46875 C 16.613281 0.667969 16.574219 0.886719 16.5 1.117188 C 16.421875 1.351562 16.320312 1.550781 16.191406 1.71875 C 16.066406 1.886719 15.917969 1.96875 15.75 1.96875 C 15.640625 1.96875 15.457031 1.953125 15.203125 1.917969 C 14.949219 1.886719 14.660156 1.847656 14.339844 1.800781 L 12.183594 1.519531 L 11.4375 8.953125 C 11.414062 9.183594 11.402344 9.417969 11.402344 9.652344 C 11.402344 9.886719 11.417969 10.117188 11.453125 10.351562 L 15.003906 9.652344 C 15.203125 9.609375 15.371094 9.570312 15.511719 9.546875 C 15.648438 9.515625 15.742188 9.503906 15.785156 9.503906 C 15.917969 9.503906 15.984375 9.578125 15.984375 9.734375 C 15.984375 10.011719 15.9375 10.296875 15.84375 10.585938 C 15.75 10.875 15.617188 11.117188 15.453125 11.3125 C 15.285156 11.503906 15.082031 11.601562 14.839844 11.601562 L 14.339844 11.601562 C 13.101562 11.601562 12.128906 11.636719 11.417969 11.703125 C 10.710938 11.769531 10.214844 11.800781 9.925781 11.800781 M 10.773438 6.351562 L 10.988281 5.070312 L 11.785156 5.070312 C 12.261719 5.070312 12.707031 5.050781 13.128906 5.019531 C 13.550781 4.984375 13.902344 4.953125 14.191406 4.917969 C 14.480469 4.886719 14.660156 4.867188 14.738281 4.867188 C 14.828125 4.867188 14.894531 4.894531 14.9375 4.941406 C 14.980469 4.992188 15.003906 5.0625 15.003906 5.152344 C 15.003906 5.320312 14.894531 5.492188 14.671875 5.667969 C 14.453125 5.847656 14.179688 5.996094 13.851562 6.117188 C 13.523438 6.242188 13.207031 6.308594 12.898438 6.320312 Z M 17.808594 11.800781 C 17.632812 11.800781 17.515625 11.71875 17.460938 11.550781 C 17.40625 11.386719 17.378906 11.183594 17.378906 10.953125 C 17.378906 10.5625 17.398438 10.148438 17.445312 9.710938 C 17.488281 9.273438 17.53125 8.839844 17.578125 8.417969 L 18.488281 0.0195312 L 19.867188 0.00390625 C 20.320312 -0.0078125 20.632812 0.0234375 20.808594 0.09375 C 20.976562 0.167969 21.089844 0.3125 21.144531 0.535156 L 23.601562 9.550781 L 22.738281 9.519531 L 26.574219 1.136719 C 26.71875 0.824219 26.984375 0.5625 27.371094 0.34375 C 27.757812 0.128906 28.226562 0.0195312 28.78125 0.0195312 C 29.003906 0.0195312 29.171875 0.0703125 29.289062 0.179688 C 29.402344 0.285156 29.445312 0.484375 29.410156 0.785156 L 28.28125 11.734375 L 26.953125 11.734375 C 26.8125 11.734375 26.699219 11.648438 26.625 11.46875 C 26.546875 11.292969 26.507812 11.042969 26.507812 10.71875 C 26.507812 10.261719 26.519531 9.769531 26.550781 9.234375 C 26.578125 8.703125 26.617188 8.191406 26.671875 7.703125 L 27.285156 2.433594 L 27.386719 2.503906 L 25.210938 7.203125 C 24.769531 8.15625 24.410156 8.917969 24.132812 9.480469 C 23.855469 10.039062 23.632812 10.457031 23.460938 10.734375 C 23.289062 11.011719 23.144531 11.191406 23.019531 11.277344 C 22.898438 11.359375 22.773438 11.402344 22.640625 11.402344 C 22.496094 11.402344 22.378906 11.371094 22.285156 11.3125 C 22.1875 11.25 22.113281 11.117188 22.058594 10.917969 L 19.585938 2.417969 L 19.734375 2.402344 L 19.269531 6.71875 C 19.171875 7.597656 19.125 8.296875 19.136719 8.820312 C 19.148438 9.339844 19.183594 9.742188 19.246094 10.027344 C 19.308594 10.308594 19.363281 10.53125 19.417969 10.683594 C 19.476562 10.839844 19.503906 10.984375 19.503906 11.117188 C 19.503906 11.242188 19.4375 11.34375 19.304688 11.429688 C 19.171875 11.511719 19.003906 11.578125 18.804688 11.636719 C 18.605469 11.691406 18.414062 11.734375 18.234375 11.761719 C 18.050781 11.789062 17.910156 11.800781 17.808594 11.800781 Z M 31.171875 11.734375 C 30.972656 11.734375 30.832031 11.648438 30.757812 11.46875 C 30.679688 11.292969 30.640625 11.050781 30.640625 10.753906 C 30.640625 10.53125 30.65625 10.28125 30.691406 10.003906 L 31.75 0.269531 C 32.171875 0.222656 32.617188 0.183594 33.089844 0.152344 C 33.558594 0.117188 34.066406 0.101562 34.605469 0.101562 C 35.613281 0.101562 36.421875 0.191406 37.03125 0.375 C 37.636719 0.558594 38.082031 0.839844 38.359375 1.21875 C 38.632812 1.597656 38.773438 2.070312 38.773438 2.636719 C 38.773438 3.292969 38.582031 3.859375 38.203125 4.335938 C 37.820312 4.8125 37.316406 5.207031 36.699219 5.519531 L 36.148438 5.800781 C 35.851562 5.945312 35.585938 6.066406 35.355469 6.160156 C 35.121094 6.253906 34.90625 6.300781 34.707031 6.300781 C 34.496094 6.300781 34.28125 6.230469 34.058594 6.09375 C 33.835938 5.953125 33.726562 5.824219 33.726562 5.703125 C 33.726562 5.601562 33.753906 5.53125 33.804688 5.492188 C 33.851562 5.453125 33.921875 5.425781 34.007812 5.402344 C 34.40625 5.300781 34.816406 5.148438 35.230469 4.941406 C 35.644531 4.738281 35.992188 4.46875 36.277344 4.136719 C 36.558594 3.800781 36.699219 3.386719 36.699219 2.886719 C 36.699219 2.328125 36.453125 1.933594 35.96875 1.703125 C 35.480469 1.46875 34.691406 1.351562 33.59375 1.351562 L 32.8125 8.953125 C 32.804688 9.0625 32.796875 9.171875 32.789062 9.277344 C 32.785156 9.382812 32.78125 9.492188 32.78125 9.601562 C 32.78125 9.722656 32.785156 9.851562 32.796875 9.980469 C 32.808594 10.105469 32.820312 10.230469 32.832031 10.351562 C 34.148438 10.351562 35.144531 10.148438 35.816406 9.742188 C 36.492188 9.335938 36.832031 8.722656 36.832031 7.902344 C 36.832031 7.390625 36.695312 6.945312 36.425781 6.570312 C 36.152344 6.191406 35.789062 5.929688 35.335938 5.785156 L 36.480469 5.183594 C 37.023438 5.320312 37.488281 5.523438 37.871094 5.796875 C 38.25 6.066406 38.539062 6.386719 38.738281 6.753906 C 38.9375 7.117188 39.039062 7.53125 39.039062 7.984375 C 39.039062 8.683594 38.863281 9.308594 38.515625 9.851562 C 38.167969 10.398438 37.644531 10.824219 36.945312 11.136719 C 36.25 11.445312 35.386719 11.601562 34.359375 11.601562 C 34.136719 11.601562 33.867188 11.609375 33.542969 11.617188 C 33.222656 11.628906 32.902344 11.648438 32.574219 11.667969 C 32.246094 11.691406 31.953125 11.707031 31.695312 11.71875 C 31.433594 11.730469 31.257812 11.734375 31.171875 11.734375 Z M 40.980469 11.734375 C 40.824219 11.734375 40.703125 11.667969 40.609375 11.535156 C 40.511719 11.402344 40.445312 11.230469 40.398438 11.019531 C 40.355469 10.808594 40.332031 10.597656 40.332031 10.386719 C 40.332031 9.929688 40.359375 9.492188 40.414062 9.070312 C 40.472656 8.648438 40.519531 8.191406 40.566406 7.703125 L 41.363281 0.0195312 L 42.523438 0.0195312 C 42.8125 0.0195312 43 0.128906 43.09375 0.34375 C 43.191406 0.5625 43.238281 0.820312 43.238281 1.117188 C 43.238281 1.386719 43.226562 1.625 43.203125 1.835938 C 43.183594 2.046875 43.152344 2.300781 43.113281 2.601562 C 43.074219 2.902344 43.027344 3.3125 42.972656 3.835938 L 42.140625 11.734375 Z M 43.902344 11.835938 C 43.601562 11.835938 43.453125 11.742188 43.453125 11.550781 C 43.453125 11.464844 43.496094 11.320312 43.585938 11.117188 L 48.515625 1.136719 C 48.59375 0.96875 48.753906 0.800781 48.996094 0.636719 C 49.242188 0.46875 49.535156 0.328125 49.875 0.207031 C 50.21875 0.09375 50.574219 0.0351562 50.9375 0.0351562 C 51.027344 0.0351562 51.113281 0.0625 51.199219 0.117188 C 51.28125 0.175781 51.335938 0.308594 51.371094 0.519531 C 51.558594 1.796875 51.785156 3.078125 52.050781 4.367188 C 52.316406 5.65625 52.621094 6.917969 52.964844 8.152344 C 53.117188 8.675781 53.25 9.097656 53.363281 9.417969 C 53.472656 9.742188 53.582031 9.984375 53.695312 10.152344 C 53.816406 10.320312 53.925781 10.457031 54.019531 10.5625 C 54.113281 10.667969 54.160156 10.769531 54.160156 10.867188 C 54.160156 10.980469 54.097656 11.089844 53.96875 11.203125 C 53.839844 11.3125 53.683594 11.414062 53.496094 11.503906 C 53.308594 11.589844 53.113281 11.664062 52.914062 11.71875 C 52.714844 11.773438 52.542969 11.800781 52.398438 11.800781 C 52.15625 11.800781 51.90625 11.582031 51.652344 11.144531 C 51.398438 10.707031 51.148438 9.914062 50.90625 8.769531 L 49.460938 1.820312 L 49.777344 1.617188 L 46.539062 8.453125 C 46.398438 8.761719 46.296875 9.023438 46.234375 9.234375 C 46.171875 9.445312 46.136719 9.640625 46.125 9.8125 C 46.113281 9.984375 46.09375 10.179688 46.058594 10.402344 C 46.039062 10.613281 45.933594 10.804688 45.742188 10.980469 C 45.554688 11.148438 45.335938 11.300781 45.089844 11.429688 C 44.839844 11.554688 44.605469 11.65625 44.382812 11.730469 C 44.160156 11.800781 44 11.835938 43.902344 11.835938 M 45.992188 8.433594 L 45.992188 7.183594 L 52.167969 7.183594 L 52.167969 8.433594 Z M 57.511719 7.253906 L 56.019531 3.683594 C 55.796875 3.152344 55.59375 2.714844 55.414062 2.375 C 55.230469 2.039062 55.027344 1.78125 54.804688 1.601562 C 54.53125 1.378906 54.347656 1.21875 54.257812 1.117188 C 54.171875 1.019531 54.125 0.914062 54.125 0.800781 C 54.125 0.703125 54.21875 0.59375 54.40625 0.480469 C 54.597656 0.359375 54.8125 0.257812 55.054688 0.167969 C 55.296875 0.078125 55.503906 0.0351562 55.667969 0.0351562 C 56.125 0.0351562 56.503906 0.222656 56.808594 0.59375 C 57.109375 0.964844 57.375 1.46875 57.59375 2.101562 L 58.824219 5.570312 L 58.324219 5.933594 L 59.984375 3.367188 C 60.292969 2.902344 60.484375 2.496094 60.558594 2.152344 C 60.628906 1.808594 60.675781 1.519531 60.699219 1.285156 C 60.722656 1.085938 60.84375 0.910156 61.0625 0.761719 C 61.285156 0.609375 61.546875 0.480469 61.84375 0.367188 C 62.144531 0.257812 62.429688 0.175781 62.699219 0.117188 C 62.96875 0.0625 63.171875 0.0351562 63.304688 0.0351562 C 63.503906 0.0351562 63.601562 0.125 63.601562 0.300781 C 63.601562 0.414062 63.558594 0.550781 63.46875 0.71875 C 63.382812 0.886719 63.261719 1.074219 63.105469 1.285156 L 58.921875 7.253906 L 57.511719 7.253906 M 57.429688 11.734375 C 57.230469 11.734375 57.089844 11.648438 57.015625 11.46875 C 56.9375 11.292969 56.898438 11.050781 56.898438 10.753906 C 56.898438 10.53125 56.914062 10.28125 56.949219 10.003906 L 57.394531 5.953125 L 59.371094 6.253906 L 58.773438 11.734375 Z M 62.210938 11.835938 C 61.910156 11.835938 61.761719 11.742188 61.761719 11.550781 C 61.761719 11.464844 61.804688 11.320312 61.894531 11.117188 L 66.824219 1.136719 C 66.902344 0.96875 67.0625 0.800781 67.304688 0.636719 C 67.546875 0.46875 67.839844 0.328125 68.183594 0.207031 C 68.527344 0.09375 68.882812 0.0351562 69.246094 0.0351562 C 69.335938 0.0351562 69.421875 0.0625 69.503906 0.117188 C 69.585938 0.175781 69.644531 0.308594 69.679688 0.519531 C 69.867188 1.796875 70.09375 3.078125 70.359375 4.367188 C 70.625 5.65625 70.929688 6.917969 71.273438 8.152344 C 71.425781 8.675781 71.558594 9.097656 71.667969 9.417969 C 71.78125 9.742188 71.890625 9.984375 72 10.152344 C 72.125 10.320312 72.230469 10.457031 72.328125 10.5625 C 72.421875 10.667969 72.464844 10.769531 72.464844 10.867188 C 72.464844 10.980469 72.402344 11.089844 72.277344 11.203125 C 72.148438 11.3125 71.992188 11.414062 71.800781 11.503906 C 71.613281 11.589844 71.421875 11.664062 71.222656 11.71875 C 71.023438 11.773438 70.851562 11.800781 70.707031 11.800781 C 70.464844 11.800781 70.214844 11.582031 69.960938 11.144531 C 69.707031 10.707031 69.457031 9.914062 69.214844 8.769531 L 67.769531 1.820312 L 68.085938 1.617188 L 64.847656 8.453125 C 64.703125 8.761719 64.601562 9.023438 64.542969 9.234375 C 64.480469 9.445312 64.445312 9.640625 64.433594 9.8125 C 64.421875 9.984375 64.398438 10.179688 64.367188 10.402344 C 64.34375 10.613281 64.238281 10.804688 64.050781 10.980469 C 63.863281 11.148438 63.644531 11.300781 63.398438 11.429688 C 63.148438 11.554688 62.910156 11.65625 62.691406 11.730469 C 62.46875 11.800781 62.308594 11.835938 62.210938 11.835938 M 64.300781 8.433594 L 64.300781 7.183594 L 70.476562 7.183594 L 70.476562 8.433594 Z M 72.996094 11.835938 C 72.699219 11.835938 72.550781 11.742188 72.550781 11.550781 C 72.550781 11.464844 72.59375 11.320312 72.683594 11.117188 L 77.613281 1.136719 C 77.6875 0.96875 77.851562 0.800781 78.09375 0.636719 C 78.335938 0.46875 78.628906 0.328125 78.972656 0.207031 C 79.316406 0.09375 79.671875 0.0351562 80.035156 0.0351562 C 80.125 0.0351562 80.210938 0.0625 80.292969 0.117188 C 80.375 0.175781 80.433594 0.308594 80.46875 0.519531 C 80.65625 1.796875 80.882812 3.078125 81.148438 4.367188 C 81.414062 5.65625 81.71875 6.917969 82.058594 8.152344 C 82.214844 8.675781 82.347656 9.097656 82.457031 9.417969 C 82.570312 9.742188 82.679688 9.984375 82.789062 10.152344 C 82.914062 10.320312 83.019531 10.457031 83.117188 10.5625 C 83.207031 10.667969 83.253906 10.769531 83.253906 10.867188 C 83.253906 10.980469 83.191406 11.089844 83.066406 11.203125 C 82.9375 11.3125 82.78125 11.414062 82.589844 11.503906 C 82.402344 11.589844 82.210938 11.664062 82.011719 11.71875 C 81.8125 11.773438 81.640625 11.800781 81.496094 11.800781 C 81.253906 11.800781 81.003906 11.582031 80.75 11.144531 C 80.496094 10.707031 80.246094 9.914062 80.003906 8.769531 L 78.558594 1.820312 L 78.875 1.617188 L 75.636719 8.453125 C 75.492188 8.761719 75.390625 9.023438 75.332031 9.234375 C 75.269531 9.445312 75.234375 9.640625 75.222656 9.8125 C 75.210938 9.984375 75.1875 10.179688 75.15625 10.402344 C 75.132812 10.613281 75.027344 10.804688 74.839844 10.980469 C 74.652344 11.148438 74.433594 11.300781 74.1875 11.429688 C 73.9375 11.554688 73.699219 11.65625 73.480469 11.730469 C 73.257812 11.800781 73.097656 11.835938 72.996094 11.835938 M 75.089844 8.433594 L 75.089844 7.183594 L 81.261719 7.183594 L 81.261719 8.433594 Z M 84.847656 11.800781 C 84.671875 11.800781 84.554688 11.71875 84.5 11.550781 C 84.445312 11.386719 84.417969 11.183594 84.417969 10.953125 C 84.417969 10.5625 84.4375 10.148438 84.484375 9.710938 C 84.527344 9.273438 84.570312 8.839844 84.617188 8.417969 L 85.527344 0.0195312 L 86.742188 0.00390625 C 86.941406 0.00390625 87.097656 0.0273438 87.214844 0.0742188 C 87.332031 0.125 87.460938 0.28125 87.605469 0.535156 C 88.136719 1.46875 88.710938 2.394531 89.332031 3.3125 C 89.949219 4.226562 90.542969 5.101562 91.105469 5.933594 C 91.671875 6.769531 92.136719 7.53125 92.5 8.21875 L 92.070312 8.734375 L 92.433594 5.152344 C 92.523438 4.296875 92.5625 3.609375 92.558594 3.085938 C 92.550781 2.5625 92.523438 2.15625 92.472656 1.859375 C 92.425781 1.566406 92.375 1.335938 92.328125 1.167969 C 92.277344 1.003906 92.25 0.847656 92.25 0.703125 C 92.25 0.589844 92.308594 0.492188 92.417969 0.410156 C 92.527344 0.328125 92.667969 0.257812 92.832031 0.203125 C 93 0.148438 93.160156 0.105469 93.324219 0.0742188 C 93.484375 0.0507812 93.617188 0.0351562 93.730469 0.0351562 C 93.9375 0.0351562 94.097656 0.148438 94.210938 0.367188 C 94.320312 0.589844 94.375 0.8125 94.375 1.035156 C 94.375 1.222656 94.355469 1.441406 94.320312 1.683594 C 94.28125 1.929688 94.230469 2.324219 94.175781 2.867188 L 93.945312 5.070312 C 93.832031 6.113281 93.757812 6.964844 93.71875 7.628906 C 93.679688 8.289062 93.664062 8.8125 93.664062 9.203125 C 93.664062 9.589844 93.671875 9.90625 93.6875 10.152344 C 93.703125 10.398438 93.710938 10.625 93.710938 10.835938 C 93.710938 10.957031 93.652344 11.078125 93.53125 11.191406 C 93.40625 11.308594 93.253906 11.414062 93.066406 11.503906 C 92.875 11.589844 92.695312 11.660156 92.515625 11.710938 C 92.339844 11.761719 92.191406 11.785156 92.070312 11.785156 C 91.96875 11.785156 91.878906 11.734375 91.804688 11.636719 C 91.726562 11.535156 91.691406 11.398438 91.703125 11.21875 C 91.714844 11.074219 91.671875 10.886719 91.582031 10.660156 C 91.484375 10.433594 91.378906 10.195312 91.253906 9.953125 C 91.132812 9.707031 91.015625 9.496094 90.90625 9.320312 C 90.554688 8.675781 90.113281 7.980469 89.589844 7.234375 C 89.0625 6.492188 88.523438 5.714844 87.96875 4.902344 C 87.414062 4.089844 86.917969 3.269531 86.476562 2.433594 L 86.707031 2.402344 L 86.257812 6.71875 C 86.183594 7.484375 86.136719 8.117188 86.125 8.609375 C 86.117188 9.105469 86.125 9.496094 86.160156 9.785156 C 86.191406 10.074219 86.230469 10.296875 86.277344 10.453125 C 86.320312 10.609375 86.363281 10.730469 86.402344 10.824219 C 86.441406 10.921875 86.457031 11.023438 86.457031 11.136719 C 86.457031 11.257812 86.394531 11.359375 86.269531 11.441406 C 86.140625 11.527344 85.984375 11.597656 85.804688 11.652344 C 85.621094 11.707031 85.441406 11.746094 85.261719 11.769531 C 85.085938 11.792969 84.949219 11.800781 84.847656 11.800781 Z M 102.042969 11.820312 C 101.105469 11.820312 100.339844 11.667969 99.753906 11.367188 C 99.167969 11.070312 98.875 10.679688 98.875 10.203125 C 98.875 9.835938 98.902344 9.574219 98.957031 9.417969 C 99.011719 9.261719 99.105469 9.183594 99.238281 9.183594 C 99.328125 9.183594 99.464844 9.253906 99.652344 9.386719 C 99.84375 9.519531 100.074219 9.667969 100.34375 9.835938 C 100.613281 10.003906 100.917969 10.152344 101.257812 10.285156 C 101.59375 10.417969 101.960938 10.484375 102.359375 10.484375 C 102.933594 10.484375 103.402344 10.359375 103.761719 10.109375 C 104.121094 9.859375 104.300781 9.472656 104.300781 8.953125 C 104.300781 8.453125 104.183594 8.074219 103.953125 7.820312 C 103.71875 7.5625 103.371094 7.285156 102.90625 6.984375 L 101.863281 6.320312 C 101.484375 6.074219 101.140625 5.824219 100.832031 5.570312 C 100.523438 5.3125 100.273438 5.003906 100.085938 4.644531 C 99.898438 4.285156 99.804688 3.824219 99.804688 3.269531 C 99.804688 2.578125 99.980469 1.992188 100.335938 1.503906 C 100.6875 1.011719 101.175781 0.640625 101.796875 0.386719 C 102.414062 0.128906 103.121094 0.00390625 103.917969 0.00390625 C 104.660156 0.00390625 105.214844 0.0507812 105.578125 0.144531 C 105.945312 0.238281 106.1875 0.367188 106.304688 0.535156 C 106.417969 0.703125 106.476562 0.898438 106.476562 1.117188 C 106.476562 1.429688 106.429688 1.664062 106.34375 1.824219 C 106.253906 1.988281 106.160156 2.070312 106.0625 2.070312 C 105.972656 2.070312 105.871094 2.042969 105.761719 1.984375 C 105.652344 1.929688 105.496094 1.859375 105.296875 1.769531 C 105.140625 1.691406 104.898438 1.597656 104.558594 1.492188 C 104.222656 1.386719 103.871094 1.335938 103.503906 1.335938 C 103.027344 1.335938 102.628906 1.457031 102.304688 1.703125 C 101.976562 1.945312 101.8125 2.3125 101.8125 2.800781 C 101.8125 3.257812 101.933594 3.617188 102.175781 3.875 C 102.421875 4.136719 102.746094 4.367188 103.15625 4.570312 L 104.070312 5.003906 C 104.5 5.203125 104.902344 5.425781 105.273438 5.667969 C 105.644531 5.914062 105.941406 6.226562 106.167969 6.609375 C 106.394531 6.992188 106.507812 7.503906 106.507812 8.136719 C 106.507812 9.3125 106.105469 10.222656 105.296875 10.859375 C 104.488281 11.5 103.40625 11.820312 102.042969 11.820312 Z M 110.773438 7.253906 L 109.28125 3.683594 C 109.058594 3.152344 108.859375 2.714844 108.675781 2.375 C 108.492188 2.039062 108.289062 1.78125 108.070312 1.601562 C 107.792969 1.378906 107.609375 1.21875 107.519531 1.117188 C 107.433594 1.019531 107.386719 0.914062 107.386719 0.800781 C 107.386719 0.703125 107.484375 0.59375 107.671875 0.480469 C 107.859375 0.359375 108.074219 0.257812 108.316406 0.167969 C 108.5625 0.078125 108.765625 0.0351562 108.933594 0.0351562 C 109.386719 0.0351562 109.765625 0.222656 110.070312 0.59375 C 110.375 0.964844 110.636719 1.46875 110.859375 2.101562 L 112.085938 5.570312 L 111.589844 5.933594 L 113.246094 3.367188 C 113.558594 2.902344 113.75 2.496094 113.820312 2.152344 C 113.894531 1.808594 113.9375 1.519531 113.960938 1.285156 C 113.984375 1.085938 114.105469 0.910156 114.328125 0.761719 C 114.546875 0.609375 114.808594 0.480469 115.105469 0.367188 C 115.40625 0.257812 115.691406 0.175781 115.964844 0.117188 C 116.234375 0.0625 116.433594 0.0351562 116.566406 0.0351562 C 116.765625 0.0351562 116.867188 0.125 116.867188 0.300781 C 116.867188 0.414062 116.820312 0.550781 116.734375 0.71875 C 116.644531 0.886719 116.523438 1.074219 116.367188 1.285156 L 112.183594 7.253906 L 110.773438 7.253906 M 110.691406 11.734375 C 110.492188 11.734375 110.355469 11.648438 110.277344 11.46875 C 110.199219 11.292969 110.160156 11.050781 110.160156 10.753906 C 110.160156 10.53125 110.175781 10.28125 110.210938 10.003906 L 110.660156 5.953125 L 112.632812 6.253906 L 112.035156 11.734375 Z M 115.472656 11.835938 C 115.171875 11.835938 115.023438 11.742188 115.023438 11.550781 C 115.023438 11.464844 115.066406 11.320312 115.15625 11.117188 L 120.085938 1.136719 C 120.164062 0.96875 120.324219 0.800781 120.566406 0.636719 C 120.8125 0.46875 121.105469 0.328125 121.445312 0.207031 C 121.789062 0.09375 122.144531 0.0351562 122.507812 0.0351562 C 122.597656 0.0351562 122.683594 0.0625 122.765625 0.117188 C 122.847656 0.175781 122.90625 0.308594 122.941406 0.519531 C 123.128906 1.796875 123.355469 3.078125 123.621094 4.367188 C 123.886719 5.65625 124.191406 6.917969 124.535156 8.152344 C 124.6875 8.675781 124.820312 9.097656 124.933594 9.417969 C 125.042969 9.742188 125.152344 9.984375 125.265625 10.152344 C 125.386719 10.320312 125.492188 10.457031 125.585938 10.5625 C 125.683594 10.667969 125.730469 10.769531 125.730469 10.867188 C 125.730469 10.980469 125.667969 11.089844 125.539062 11.203125 C 125.410156 11.3125 125.253906 11.414062 125.066406 11.503906 C 124.878906 11.589844 124.683594 11.664062 124.484375 11.71875 C 124.285156 11.773438 124.113281 11.800781 123.96875 11.800781 C 123.726562 11.800781 123.476562 11.582031 123.222656 11.144531 C 122.96875 10.707031 122.71875 9.914062 122.476562 8.769531 L 121.03125 1.820312 L 121.347656 1.617188 L 118.109375 8.453125 C 117.96875 8.761719 117.867188 9.023438 117.804688 9.234375 C 117.742188 9.445312 117.707031 9.640625 117.695312 9.8125 C 117.683594 9.984375 117.664062 10.179688 117.628906 10.402344 C 117.609375 10.613281 117.503906 10.804688 117.3125 10.980469 C 117.125 11.148438 116.90625 11.300781 116.660156 11.429688 C 116.410156 11.554688 116.175781 11.65625 115.953125 11.730469 C 115.730469 11.800781 115.570312 11.835938 115.472656 11.835938 M 117.5625 8.433594 L 117.5625 7.183594 L 123.738281 7.183594 L 123.738281 8.433594 Z M 133.230469 11.753906 C 132.945312 11.753906 132.617188 11.535156 132.246094 11.09375 C 131.875 10.65625 131.5 10.082031 131.125 9.378906 C 130.746094 8.671875 130.386719 7.914062 130.042969 7.101562 C 130 7.003906 129.953125 6.898438 129.902344 6.796875 C 129.851562 6.6875 129.828125 6.578125 129.828125 6.46875 C 129.828125 6.347656 129.867188 6.261719 129.945312 6.210938 C 130.023438 6.160156 130.105469 6.128906 130.195312 6.117188 C 130.945312 5.972656 131.574219 5.675781 132.078125 5.21875 C 132.582031 4.761719 132.832031 4.179688 132.832031 3.46875 C 132.832031 3.070312 132.75 2.710938 132.578125 2.394531 C 132.40625 2.078125 132.101562 1.824219 131.671875 1.636719 C 131.238281 1.445312 130.640625 1.351562 129.878906 1.351562 L 129.8125 1.351562 L 128.71875 11.734375 L 127.371094 11.734375 C 127.183594 11.734375 127.050781 11.648438 126.972656 11.46875 C 126.898438 11.292969 126.859375 11.050781 126.859375 10.753906 C 126.859375 10.53125 126.875 10.28125 126.90625 10.003906 L 127.96875 0.269531 C 128.457031 0.214844 128.941406 0.171875 129.425781 0.144531 C 129.90625 0.117188 130.382812 0.101562 130.859375 0.101562 C 131.664062 0.101562 132.386719 0.214844 133.015625 0.433594 C 133.648438 0.65625 134.140625 1.003906 134.503906 1.46875 C 134.863281 1.933594 135.039062 2.542969 135.039062 3.285156 C 135.039062 3.808594 134.9375 4.273438 134.734375 4.683594 C 134.53125 5.097656 134.253906 5.449219 133.90625 5.742188 C 133.554688 6.039062 133.171875 6.28125 132.75 6.46875 C 132.328125 6.65625 131.902344 6.796875 131.472656 6.886719 L 131.605469 6.050781 C 131.980469 6.839844 132.347656 7.511719 132.707031 8.070312 C 133.066406 8.625 133.390625 9.066406 133.679688 9.394531 C 133.96875 9.722656 134.1875 9.953125 134.34375 10.085938 C 134.621094 10.296875 134.820312 10.441406 134.949219 10.527344 C 135.078125 10.609375 135.140625 10.703125 135.140625 10.800781 C 135.140625 10.902344 135.070312 11.003906 134.933594 11.109375 C 134.796875 11.214844 134.621094 11.320312 134.410156 11.417969 C 134.199219 11.519531 133.988281 11.597656 133.773438 11.660156 C 133.554688 11.722656 133.375 11.753906 133.230469 11.753906 Z M 137.03125 11.734375 C 136.878906 11.734375 136.753906 11.667969 136.660156 11.535156 C 136.566406 11.402344 136.496094 11.230469 136.453125 11.019531 C 136.40625 10.808594 136.386719 10.597656 136.386719 10.386719 C 136.386719 9.929688 136.414062 9.492188 136.46875 9.070312 C 136.523438 8.648438 136.574219 8.191406 136.617188 7.703125 L 137.414062 0.0195312 L 138.578125 0.0195312 C 138.863281 0.0195312 139.054688 0.128906 139.152344 0.34375 C 139.242188 0.5625 139.289062 0.820312 139.289062 1.117188 C 139.289062 1.386719 139.277344 1.625 139.257812 1.835938 C 139.234375 2.046875 139.203125 2.300781 139.167969 2.601562 C 139.128906 2.902344 139.078125 3.3125 139.023438 3.835938 L 138.195312 11.734375 Z M 139.953125 11.835938 C 139.65625 11.835938 139.503906 11.742188 139.503906 11.550781 C 139.503906 11.464844 139.550781 11.320312 139.636719 11.117188 L 144.566406 1.136719 C 144.644531 0.96875 144.804688 0.800781 145.050781 0.636719 C 145.292969 0.46875 145.585938 0.328125 145.929688 0.207031 C 146.273438 0.09375 146.625 0.0351562 146.992188 0.0351562 C 147.078125 0.0351562 147.164062 0.0625 147.246094 0.117188 C 147.332031 0.175781 147.390625 0.308594 147.421875 0.519531 C 147.609375 1.796875 147.835938 3.078125 148.101562 4.367188 C 148.367188 5.65625 148.671875 6.917969 149.015625 8.152344 C 149.171875 8.675781 149.304688 9.097656 149.414062 9.417969 C 149.523438 9.742188 149.636719 9.984375 149.746094 10.152344 C 149.867188 10.320312 149.976562 10.457031 150.070312 10.5625 C 150.164062 10.667969 150.210938 10.769531 150.210938 10.867188 C 150.210938 10.980469 150.148438 11.089844 150.023438 11.203125 C 149.894531 11.3125 149.734375 11.414062 149.546875 11.503906 C 149.359375 11.589844 149.164062 11.664062 148.964844 11.71875 C 148.765625 11.773438 148.597656 11.800781 148.453125 11.800781 C 148.207031 11.800781 147.960938 11.582031 147.703125 11.144531 C 147.449219 10.707031 147.203125 9.914062 146.957031 8.769531 L 145.515625 1.820312 L 145.828125 1.617188 L 142.59375 8.453125 C 142.449219 8.761719 142.347656 9.023438 142.289062 9.234375 C 142.226562 9.445312 142.1875 9.640625 142.179688 9.8125 C 142.167969 9.984375 142.144531 10.179688 142.113281 10.402344 C 142.089844 10.613281 141.984375 10.804688 141.796875 10.980469 C 141.609375 11.148438 141.390625 11.300781 141.140625 11.429688 C 140.890625 11.554688 140.65625 11.65625 140.433594 11.730469 C 140.214844 11.800781 140.054688 11.835938 139.953125 11.835938 M 142.046875 8.433594 L 142.046875 7.183594 L 148.21875 7.183594 L 148.21875 8.433594 Z M 153.082031 6.351562 L 153.082031 5.101562 L 159.242188 5.101562 L 159.242188 6.351562 L 153.082031 6.351562 M 152.101562 11.734375 C 151.949219 11.734375 151.824219 11.667969 151.726562 11.535156 C 151.636719 11.402344 151.566406 11.230469 151.523438 11.019531 C 151.476562 10.808594 151.457031 10.597656 151.457031 10.386719 C 151.457031 9.929688 151.484375 9.492188 151.539062 9.070312 C 151.59375 8.648438 151.644531 8.191406 151.6875 7.703125 L 152.484375 0.0195312 L 153.648438 0.0195312 C 153.933594 0.0195312 154.125 0.128906 154.21875 0.34375 C 154.3125 0.5625 154.359375 0.820312 154.359375 1.117188 C 154.359375 1.386719 154.351562 1.625 154.328125 1.835938 C 154.304688 2.046875 154.277344 2.300781 154.238281 2.601562 C 154.199219 2.902344 154.152344 3.3125 154.09375 3.835938 L 153.265625 11.734375 L 152.101562 11.734375 M 158.777344 11.734375 C 158.621094 11.734375 158.496094 11.667969 158.402344 11.535156 C 158.308594 11.402344 158.238281 11.230469 158.195312 11.019531 C 158.152344 10.808594 158.128906 10.597656 158.128906 10.386719 C 158.128906 9.929688 158.15625 9.492188 158.210938 9.070312 C 158.265625 8.648438 158.316406 8.191406 158.359375 7.703125 L 159.15625 0.0195312 L 160.320312 0.0195312 C 160.605469 0.0195312 160.796875 0.128906 160.894531 0.34375 C 160.988281 0.5625 161.03125 0.820312 161.03125 1.117188 C 161.03125 1.386719 161.023438 1.625 161 1.835938 C 160.976562 2.046875 160.949219 2.300781 160.910156 2.601562 C 160.871094 2.902344 160.824219 3.3125 160.769531 3.835938 L 159.9375 11.734375 Z M 158.777344 11.734375 "/>
</g>
</svg>
